name Walk7.mot
datacolumns 19
datarows 25
range 3.09500000 3.21500000
endheader

                time	   L_ground_force_vx	   L_ground_force_vy	   L_ground_force_vz	   L_ground_force_px	   L_ground_force_py	   L_ground_force_pz	   R_ground_force_vx	   R_ground_force_vy	   R_ground_force_vz	   R_ground_force_px	   R_ground_force_py	   R_ground_force_pz	   L_ground_torque_x	   L_ground_torque_y	   L_ground_torque_z	   R_ground_torque_x	   R_ground_torque_y	   R_ground_torque_z	
          3.09500000	          0.00215336	          0.01285451	          0.00162513	         -0.00013814	          0.00000000	         -0.00005250	        -25.94553433	        883.85479896	        -61.83667000	          0.23804077	          0.00000000	          0.10539214	          0.00000000	          0.00027294	          0.00000000	          0.00000000	          8.38399547	          0.00000000	
          3.10000000	         -0.00144045	          0.00138705	          0.00083303	         -0.00009872	          0.00000000	         -0.00003829	        -24.76727521	        879.36452077	        -61.49069568	          0.23990710	          0.00000000	          0.10580043	          0.00000000	          0.00019308	          0.00000000	          0.00000000	          8.24095746	          0.00000000	
          3.10500000	         -0.00363117	         -0.00607650	          0.00025918	         -0.00006564	          0.00000000	         -0.00002616	        -23.57663072	        875.97796415	        -61.21131502	          0.24171016	          0.00000000	          0.10619034	          0.00000000	          0.00012660	          0.00000000	          0.00000000	          8.11186079	          0.00000000	
          3.11000000	         -0.00474885	         -0.01038215	         -0.00012931	         -0.00003923	          0.00000000	         -0.00001630	        -22.36803431	        873.73950673	        -60.98793709	          0.24344245	          0.00000000	          0.10655795	          0.00000000	          0.00007395	          0.00000000	          0.00000000	          7.99512345	          0.00000000	
          3.11500000	         -0.00509003	         -0.01232219	         -0.00036822	         -0.00001919	          0.00000000	         -0.00000869	        -21.13708885	        872.68892596	        -60.81824768	          0.24509920	          0.00000000	          0.10690063	          0.00000000	          0.00003434	          0.00000000	          0.00000000	          7.88889259	          0.00000000	
          3.12000000	         -0.00490625	         -0.01259175	         -0.00049230	         -0.00000482	          0.00000000	         -0.00000313	        -19.87952775	        872.85421434	        -60.70831873	          0.24667869	          0.00000000	          0.10721664	          0.00000000	          0.00000623	          0.00000000	          0.00000000	          7.79115276	          0.00000000	
          3.12500000	         -0.00440038	         -0.01176877	         -0.00053294	          0.00000477	          0.00000000	          0.00000069	        -18.59106174	        874.24611925	        -60.67055910	          0.24818107	          0.00000000	          0.10750524	          0.00000000	         -0.00001230	          0.00000000	          0.00000000	          7.69954573	          0.00000000	
          3.13000000	         -0.00372795	         -0.01031023	         -0.00051685	          0.00001055	          0.00000000	          0.00000308	        -17.26643313	        876.85647453	        -60.72043692	          0.24960974	          0.00000000	          0.10776649	          0.00000000	         -0.00002320	          0.00000000	          0.00000000	          7.61143255	          0.00000000	
          3.13500000	         -0.00300190	         -0.00855949	         -0.00046566	          0.00001342	          0.00000000	          0.00000437	        -15.89938024	        880.65657031	        -60.87283877	          0.25097171	          0.00000000	          0.10800158	          0.00000000	         -0.00002836	          0.00000000	          0.00000000	          7.52428204	          0.00000000	
          3.14000000	         -0.00229889	         -0.00675982	         -0.00039600	          0.00001420	          0.00000000	          0.00000485	        -14.48403972	        885.59454133	        -61.13776911	          0.25227770	          0.00000000	          0.10821318	          0.00000000	         -0.00002943	          0.00000000	          0.00000000	          7.43584380	          0.00000000	
          3.14500000	         -0.00166624	         -0.00507111	         -0.00032001	          0.00001357	          0.00000000	          0.00000478	        -13.01685636	        891.59137088	        -61.51747643	          0.25354077	          0.00000000	          0.10840319	          0.00000000	         -0.00002778	          0.00000000	          0.00000000	          7.34417162	          0.00000000	
          3.15000000	         -0.00112876	         -0.00358710	         -0.00024597	          0.00001210	          0.00000000	          0.00000435	        -11.49849813	        898.54416363	        -62.00483543	          0.25477543	          0.00000000	          0.10857255	          0.00000000	         -0.00002453	          0.00000000	          0.00000000	          7.24768383	          0.00000000	
          3.15500000	         -0.00069481	         -0.00235175	         -0.00017904	          0.00001020	          0.00000000	          0.00000374	         -9.93340717	        906.33076263	        -62.58321970	          0.25599585	          0.00000000	          0.10872169	          0.00000000	         -0.00002051	          0.00000000	          0.00000000	          7.14500594	          0.00000000	
          3.16000000	         -0.00036158	         -0.00137354	         -0.00012196	          0.00000817	          0.00000000	          0.00000305	         -8.32796165	        914.80953764	        -63.22811798	          0.25721495	          0.00000000	          0.10885142	          0.00000000	         -0.00001630	          0.00000000	          0.00000000	          7.03493791	          0.00000000	
          3.16500000	         -0.00011929	         -0.00063760	         -0.00007570	          0.00000623	          0.00000000	          0.00000236	         -6.69027749	        923.81965108	        -63.90953715	          0.25844411	          0.00000000	          0.10896317	          0.00000000	         -0.00001232	          0.00000000	          0.00000000	          6.91635344	          0.00000000	
          3.17000000	          0.00004553	         -0.00011524	         -0.00004006	          0.00000449	          0.00000000	          0.00000174	         -5.02874548	        933.18897754	        -64.59519679	          0.25969412	          0.00000000	          0.10905913	          0.00000000	         -0.00000879	          0.00000000	          0.00000000	          6.78820393	          0.00000000	
          3.17500000	          0.00014762	          0.00022886	         -0.00001403	          0.00000302	          0.00000000	          0.00000120	         -3.35199148	        942.73845561	        -65.25348346	          0.26097517	          0.00000000	          0.10914229	          0.00000000	         -0.00000583	          0.00000000	          0.00000000	          6.64946046	          0.00000000	
          3.18000000	          0.00020141	          0.00043142	          0.00000377	          0.00000183	          0.00000000	          0.00000076	         -1.66955415	        952.28492887	        -65.85670439	          0.26229632	          0.00000000	          0.10921592	          0.00000000	         -0.00000347	          0.00000000	          0.00000000	          6.49964976	          0.00000000	
          3.18500000	          0.00021998	          0.00052720	          0.00001489	          0.00000093	          0.00000000	          0.00000041	          0.00849864	        961.64821842	        -66.38394310	          0.26366590	          0.00000000	          0.10928254	          0.00000000	         -0.00000168	          0.00000000	          0.00000000	          6.33905640	          0.00000000	
          3.19000000	          0.00021449	          0.00054693	          0.00002084	          0.00000028	          0.00000000	          0.00000016	          1.67214327	        970.66068042	        -66.82267636	          0.26509173	          0.00000000	          0.10934395	          0.00000000	         -0.00000041	          0.00000000	          0.00000000	          6.16843710	          0.00000000	
          3.19500000	          0.00019400	          0.00051632	          0.00002301	         -0.00000016	          0.00000000	         -0.00000001	          3.31115821	        979.17128958	        -67.16912837	          0.26658068	          0.00000000	          0.10940139	          0.00000000	          0.00000045	          0.00000000	          0.00000000	          5.98857109	          0.00000000	
          3.20000000	          0.00016552	          0.00045586	          0.00002258	         -0.00000043	          0.00000000	         -0.00000012	          4.91556282	        987.04762597	        -67.42750038	          0.26813916	          0.00000000	          0.10945587	          0.00000000	          0.00000096	          0.00000000	          0.00000000	          5.80008604	          0.00000000	
          3.20500000	          0.00013417	          0.00038104	          0.00002052	         -0.00000057	          0.00000000	         -0.00000018	          6.47555860	        994.17714814	        -67.60889043	          0.26977323	          0.00000000	          0.10950918	          0.00000000	          0.00000121	          0.00000000	          0.00000000	          5.60409261	          0.00000000	
          3.21000000	          0.00010345	          0.00030292	          0.00001757	         -0.00000061	          0.00000000	         -0.00000021	          7.98077909	       1000.46673228	        -67.72944493	          0.27148928	          0.00000000	          0.10956312	          0.00000000	          0.00000128	          0.00000000	          0.00000000	          5.40236576	          0.00000000	
          3.21500000	          0.00007557	          0.00022886	          0.00001430	         -0.00000059	          0.00000000	         -0.00000021	          9.41924682	       1005.84620310	        -67.80719418	          0.27329370	          0.00000000	          0.10961800	          0.00000000	          0.00000122	          0.00000000	          0.00000000	          5.19743629	          0.00000000	
